<?xml version="1.0" encoding="UTF-8"?>
<svg width="32" height="32" 
viewBox="0 0 32 32" 
preserveAspectRatio="xMinYMin"
xmlns:xlink="http://www.w3.org/1999/xlink"
xmlns="http://www.w3.org/2000/svg">
<!-- Generated by PQINA - https://pqina.nl/ -->
<title></title>
<g transform="rotate(NaN 16 16) translate(16 16) scale(NaN) translate(-16 -16) translate(0 0)">
<g transform="scale(1 1) translate(0 0)">
<svg xmlns="http://www.w3.org/2000/svg" width="32" height="32" viewBox="0 0 32 32" style="overflow: visible;">
    <path fill="#16664a" fill-rule="evenodd" d="M17.136.038C7.79-.594 0 6.818 0 15.997c0 .674.043 1.306.127 1.938.042.337.463.505.715.253L2.4 16.63a.48.48 0 0 0 .126-.337V16c0-7.748 6.57-13.98 14.443-13.433 6.652.464 12 5.853 12.463 12.466.548 7.874-5.684 14.444-13.43 14.444-5.22 0-9.727-2.99-11.957-7.326l5.136-5.137 5.558 5.558a.407.407 0 0 0 .588 0l7.917-7.917v2.4c0 .253.167.42.42.42h1.685c.253 0 .42-.167.42-.42V10.78c0-.253-.167-.421-.42-.421h-6.273c-.253 0-.421.168-.421.42v1.685c0 .254.168.421.421.421h2.4l-6.4 6.4-5.557-5.557a.407.407 0 0 0-.589 0L1.267 21.39a.385.385 0 0 0-.083.464C3.454 27.79 9.264 32 16 32c9.22 0 16.63-7.79 15.956-17.139C31.411 6.987 25.01.585 17.137.038z"></path>
</svg>
</g>
</g>
</svg>